<svg width="387" height="109" viewBox="0 0 387 109" fill="none" xmlns="http://www.w3.org/2000/svg">
<path d="M120 105V58.4545H140.091C143.545 58.4545 146.568 59.0833 149.159 60.3409C151.75 61.5985 153.765 63.4091 155.205 65.7727C156.644 68.1364 157.364 70.9697 157.364 74.2727C157.364 77.6061 156.621 80.4167 155.136 82.7045C153.667 84.9924 151.598 86.7197 148.932 87.8864C146.28 89.053 143.182 89.6364 139.636 89.6364H127.636V79.8182H137.091C138.576 79.8182 139.841 79.6364 140.886 79.2727C141.947 78.8939 142.758 78.2955 143.318 77.4773C143.894 76.6591 144.182 75.5909 144.182 74.2727C144.182 72.9394 143.894 71.8561 143.318 71.0227C142.758 70.1742 141.947 69.553 140.886 69.1591C139.841 68.75 138.576 68.5455 137.091 68.5455H132.636V105H120ZM147.273 83.6364L158.909 105H145.182L133.818 83.6364H147.273ZM176.349 105.636C172.622 105.636 169.41 104.924 166.713 103.5C164.031 102.061 161.963 100 160.508 97.3182C159.069 94.6212 158.349 91.3939 158.349 87.6364C158.349 84.0303 159.076 80.8788 160.531 78.1818C161.985 75.4848 164.038 73.3864 166.69 71.8864C169.342 70.3864 172.47 69.6364 176.076 69.6364C178.713 69.6364 181.099 70.0455 183.235 70.8636C185.372 71.6818 187.198 72.8712 188.713 74.4318C190.228 75.9773 191.395 77.8561 192.213 80.0682C193.031 82.2803 193.44 84.7727 193.44 87.5455V90.4545H162.258V83.5455H181.895C181.879 82.5455 181.622 81.6667 181.122 80.9091C180.637 80.1364 179.978 79.5379 179.145 79.1136C178.326 78.6742 177.395 78.4545 176.349 78.4545C175.334 78.4545 174.402 78.6742 173.554 79.1136C172.705 79.5379 172.023 80.1288 171.508 80.8864C171.008 81.6439 170.743 82.5303 170.713 83.5455V91C170.713 92.1212 170.948 93.1212 171.417 94C171.887 94.8788 172.561 95.5682 173.44 96.0682C174.319 96.5682 175.379 96.8182 176.622 96.8182C177.485 96.8182 178.273 96.697 178.985 96.4545C179.713 96.2121 180.334 95.8636 180.849 95.4091C181.364 94.9394 181.743 94.3788 181.985 93.7273H193.44C193.046 96.1515 192.114 98.2576 190.645 100.045C189.175 101.818 187.228 103.197 184.804 104.182C182.395 105.152 179.576 105.636 176.349 105.636ZM208.545 85.3636V105H195.999V70.0909H207.908V76.7273H208.272C209.03 74.5152 210.363 72.7803 212.272 71.5227C214.196 70.2652 216.439 69.6364 218.999 69.6364C221.469 69.6364 223.613 70.2045 225.431 71.3409C227.264 72.4621 228.681 74.0076 229.681 75.9773C230.696 77.947 231.196 80.197 231.181 82.7273V105H218.636V85.3636C218.651 83.6364 218.211 82.2803 217.317 81.2955C216.439 80.3106 215.211 79.8182 213.636 79.8182C212.605 79.8182 211.704 80.0455 210.931 80.5C210.174 80.9394 209.59 81.5758 209.181 82.4091C208.772 83.2273 208.56 84.2121 208.545 85.3636ZM255.632 70.0909V79.1818H232.632V70.0909H255.632ZM237.087 61.7273H249.632V93.7727C249.632 94.2576 249.716 94.6667 249.882 95C250.049 95.3182 250.307 95.5606 250.655 95.7273C251.004 95.8788 251.451 95.9545 251.996 95.9545C252.375 95.9545 252.814 95.9091 253.314 95.8182C253.829 95.7273 254.208 95.6515 254.451 95.5909L256.269 104.409C255.708 104.576 254.905 104.78 253.86 105.023C252.829 105.265 251.602 105.424 250.178 105.5C247.299 105.652 244.883 105.356 242.928 104.614C240.973 103.856 239.504 102.667 238.519 101.045C237.534 99.4242 237.057 97.3939 237.087 94.9545V61.7273ZM267.919 105.545C265.692 105.545 263.722 105.182 262.01 104.455C260.313 103.712 258.98 102.591 258.01 101.091C257.04 99.5909 256.555 97.6818 256.555 95.3636C256.555 93.4545 256.881 91.8258 257.533 90.4773C258.184 89.1136 259.093 88 260.26 87.1364C261.427 86.2727 262.783 85.6136 264.328 85.1591C265.889 84.7045 267.571 84.4091 269.374 84.2727C271.328 84.1212 272.896 83.9394 274.078 83.7273C275.275 83.5 276.139 83.1894 276.669 82.7955C277.199 82.3864 277.465 81.8485 277.465 81.1818V81.0909C277.465 80.1818 277.116 79.4848 276.419 79C275.722 78.5152 274.828 78.2727 273.737 78.2727C272.54 78.2727 271.563 78.5379 270.805 79.0682C270.063 79.5833 269.616 80.3788 269.465 81.4545H257.919C258.071 79.3333 258.745 77.3788 259.942 75.5909C261.154 73.7879 262.919 72.3485 265.237 71.2727C267.555 70.1818 270.449 69.6364 273.919 69.6364C276.419 69.6364 278.662 69.9318 280.646 70.5227C282.631 71.0985 284.321 71.9091 285.715 72.9545C287.108 73.9848 288.169 75.197 288.896 76.5909C289.639 77.9697 290.01 79.4697 290.01 81.0909V105H278.283V100.091H278.01C277.313 101.394 276.465 102.447 275.465 103.25C274.48 104.053 273.351 104.636 272.078 105C270.821 105.364 269.434 105.545 267.919 105.545ZM272.01 97.6364C272.965 97.6364 273.858 97.4394 274.692 97.0455C275.54 96.6515 276.23 96.0833 276.76 95.3409C277.29 94.5985 277.555 93.697 277.555 92.6364V89.7273C277.222 89.8636 276.866 89.9924 276.487 90.1136C276.124 90.2348 275.73 90.3485 275.305 90.4545C274.896 90.5606 274.457 90.6591 273.987 90.75C273.533 90.8409 273.055 90.9242 272.555 91C271.586 91.1515 270.79 91.4015 270.169 91.75C269.563 92.0833 269.108 92.5 268.805 93C268.518 93.4848 268.374 94.0303 268.374 94.6364C268.374 95.6061 268.715 96.3485 269.396 96.8636C270.078 97.3788 270.949 97.6364 272.01 97.6364ZM305.99 58.4545V105H293.444V58.4545H305.99ZM341.731 81.4545H330.185C330.125 80.7424 329.875 80.1288 329.435 79.6136C328.996 79.0985 328.428 78.7045 327.731 78.4318C327.049 78.1439 326.292 78 325.458 78C324.382 78 323.458 78.197 322.685 78.5909C321.913 78.9848 321.534 79.5455 321.549 80.2727C321.534 80.7879 321.754 81.2652 322.208 81.7045C322.678 82.1439 323.579 82.4848 324.913 82.7273L332.004 84C335.579 84.6515 338.238 85.75 339.981 87.2955C341.738 88.8258 342.625 90.8788 342.64 93.4545C342.625 95.9394 341.882 98.0985 340.413 99.9318C338.958 101.75 336.966 103.159 334.435 104.159C331.92 105.144 329.049 105.636 325.822 105.636C320.488 105.636 316.314 104.545 313.299 102.364C310.299 100.182 308.625 97.303 308.276 93.7273H320.731C320.898 94.8333 321.443 95.6894 322.367 96.2955C323.307 96.8864 324.488 97.1818 325.913 97.1818C327.064 97.1818 328.011 96.9848 328.754 96.5909C329.511 96.197 329.898 95.6364 329.913 94.9091C329.898 94.2424 329.564 93.7121 328.913 93.3182C328.276 92.9242 327.276 92.6061 325.913 92.3636L319.731 91.2727C316.17 90.6515 313.504 89.4697 311.731 87.7273C309.958 85.9848 309.079 83.7424 309.095 81C309.079 78.5758 309.716 76.5227 311.004 74.8409C312.307 73.1439 314.163 71.8561 316.572 70.9773C318.996 70.0833 321.867 69.6364 325.185 69.6364C330.231 69.6364 334.208 70.6818 337.117 72.7727C340.042 74.8636 341.579 77.7576 341.731 81.4545Z" fill="#020617"/>
<path d="M132.091 51H118.455L133.818 4.45454H151.091L166.455 51H152.818L142.636 17.2727H142.273L132.091 51ZM129.545 32.6364H155.182V42.0909H129.545V32.6364ZM209.645 21.9091H196.826C196.735 20.8485 196.493 19.8864 196.099 19.0227C195.72 18.1591 195.19 17.4167 194.508 16.7955C193.842 16.1591 193.031 15.6742 192.076 15.3409C191.122 14.9924 190.038 14.8182 188.826 14.8182C186.705 14.8182 184.91 15.3333 183.44 16.3636C181.985 17.3939 180.879 18.8712 180.122 20.7955C179.379 22.7197 179.008 25.0303 179.008 27.7273C179.008 30.5758 179.387 32.9621 180.145 34.8864C180.917 36.7955 182.031 38.2348 183.485 39.2045C184.94 40.1591 186.69 40.6364 188.735 40.6364C189.902 40.6364 190.948 40.4924 191.872 40.2045C192.796 39.9015 193.599 39.4697 194.281 38.9091C194.963 38.3485 195.516 37.6742 195.94 36.8864C196.379 36.0833 196.675 35.1818 196.826 34.1818L209.645 34.2727C209.493 36.2424 208.94 38.25 207.985 40.2955C207.031 42.3258 205.675 44.2045 203.917 45.9318C202.175 47.6439 200.016 49.0227 197.44 50.0682C194.864 51.1136 191.872 51.6364 188.463 51.6364C184.19 51.6364 180.357 50.7197 176.963 48.8864C173.584 47.053 170.91 44.3561 168.94 40.7955C166.985 37.2348 166.008 32.8788 166.008 27.7273C166.008 22.5455 167.008 18.1818 169.008 14.6364C171.008 11.0758 173.705 8.38636 177.099 6.56818C180.493 4.73485 184.281 3.81818 188.463 3.81818C191.402 3.81818 194.107 4.21969 196.576 5.02272C199.046 5.82576 201.213 7 203.076 8.54545C204.94 10.0758 206.44 11.9621 207.576 14.2045C208.713 16.447 209.402 19.0152 209.645 21.9091ZM225.454 4.45454V51H212.817V4.45454H225.454ZM239.073 51V4.45454H259.163C262.618 4.45454 265.641 5.08333 268.232 6.34091C270.823 7.59848 272.838 9.40909 274.277 11.7727C275.716 14.1364 276.436 16.9697 276.436 20.2727C276.436 23.6061 275.694 26.4167 274.209 28.7045C272.739 30.9924 270.671 32.7197 268.004 33.8864C265.353 35.053 262.254 35.6364 258.709 35.6364H246.709V25.8182H256.163C257.648 25.8182 258.913 25.6364 259.959 25.2727C261.019 24.8939 261.83 24.2955 262.391 23.4773C262.966 22.6591 263.254 21.5909 263.254 20.2727C263.254 18.9394 262.966 17.8561 262.391 17.0227C261.83 16.1742 261.019 15.553 259.959 15.1591C258.913 14.75 257.648 14.5455 256.163 14.5455H251.709V51H239.073ZM266.345 29.6364L277.982 51H264.254L252.891 29.6364H266.345ZM289.172 51.5455C286.944 51.5455 284.975 51.1818 283.262 50.4545C281.566 49.7121 280.232 48.5909 279.262 47.0909C278.293 45.5909 277.808 43.6818 277.808 41.3636C277.808 39.4545 278.134 37.8258 278.785 36.4773C279.437 35.1136 280.346 34 281.512 33.1364C282.679 32.2727 284.035 31.6136 285.581 31.1591C287.141 30.7045 288.823 30.4091 290.626 30.2727C292.581 30.1212 294.149 29.9394 295.331 29.7273C296.528 29.5 297.391 29.1894 297.922 28.7955C298.452 28.3864 298.717 27.8485 298.717 27.1818V27.0909C298.717 26.1818 298.369 25.4848 297.672 25C296.975 24.5152 296.081 24.2727 294.99 24.2727C293.793 24.2727 292.816 24.5379 292.058 25.0682C291.316 25.5833 290.869 26.3788 290.717 27.4545H279.172C279.323 25.3333 279.997 23.3788 281.194 21.5909C282.406 19.7879 284.172 18.3485 286.49 17.2727C288.808 16.1818 291.702 15.6364 295.172 15.6364C297.672 15.6364 299.914 15.9318 301.899 16.5227C303.884 17.0985 305.573 17.9091 306.967 18.9545C308.361 19.9848 309.422 21.197 310.149 22.5909C310.891 23.9697 311.262 25.4697 311.262 27.0909V51H299.535V46.0909H299.262C298.566 47.3939 297.717 48.447 296.717 49.25C295.732 50.053 294.603 50.6364 293.331 51C292.073 51.3636 290.687 51.5455 289.172 51.5455ZM293.262 43.6364C294.217 43.6364 295.111 43.4394 295.944 43.0455C296.793 42.6515 297.482 42.0833 298.012 41.3409C298.543 40.5985 298.808 39.697 298.808 38.6364V35.7273C298.475 35.8636 298.119 35.9924 297.74 36.1136C297.376 36.2348 296.982 36.3485 296.558 36.4545C296.149 36.5606 295.709 36.6591 295.24 36.75C294.785 36.8409 294.308 36.9242 293.808 37C292.838 37.1515 292.043 37.4015 291.422 37.75C290.816 38.0833 290.361 38.5 290.058 39C289.77 39.4848 289.626 40.0303 289.626 40.6364C289.626 41.6061 289.967 42.3485 290.649 42.8636C291.331 43.3788 292.202 43.6364 293.262 43.6364ZM331.515 51.6364C327.727 51.6364 324.485 50.8864 321.788 49.3864C319.091 47.8712 317.023 45.7652 315.583 43.0682C314.144 40.3561 313.424 37.2121 313.424 33.6364C313.424 30.0606 314.144 26.9242 315.583 24.2273C317.023 21.5152 319.091 19.4091 321.788 17.9091C324.485 16.3939 327.727 15.6364 331.515 15.6364C334.939 15.6364 337.901 16.2576 340.401 17.5C342.917 18.7273 344.863 20.4697 346.242 22.7273C347.621 24.9697 348.318 27.6061 348.333 30.6364H336.697C336.53 28.803 336 27.4091 335.106 26.4545C334.227 25.4848 333.091 25 331.697 25C330.606 25 329.651 25.3182 328.833 25.9545C328.015 26.5758 327.379 27.5227 326.924 28.7955C326.47 30.053 326.242 31.6364 326.242 33.5455C326.242 35.4545 326.47 37.0455 326.924 38.3182C327.379 39.5758 328.015 40.5227 328.833 41.1591C329.651 41.7803 330.606 42.0909 331.697 42.0909C332.621 42.0909 333.439 41.8788 334.151 41.4545C334.863 41.0152 335.439 40.3788 335.879 39.5455C336.333 38.697 336.606 37.6667 336.697 36.4545H348.333C348.288 39.5303 347.583 42.2121 346.22 44.5C344.856 46.7727 342.924 48.5303 340.424 49.7727C337.939 51.0152 334.97 51.6364 331.515 51.6364ZM362.222 42.7273L362.313 27.8182H363.949L372.404 16.0909H386.495L372.313 34.3636H368.768L362.222 42.7273ZM350.949 51V4.45454H363.495V51H350.949ZM372.495 51L364.495 37.1818L372.677 28.2727L386.858 51H372.495Z" fill="#020617"/>
<path d="M98 31.1923L51 4L4 31.1923M98 31.1923L51 58.3846M98 31.1923V77.8077L51 105M4 31.1923L51 58.3846M4 31.1923V77.8077L51 105M51 58.3846V105" stroke="#4338CA" stroke-width="7.5" stroke-linecap="round" stroke-linejoin="round"/>
</svg>
