<svg width="329" height="102" viewBox="0 0 329 102" fill="none" xmlns="http://www.w3.org/2000/svg">
<path d="M104 98V51.4545H124.091C127.545 51.4545 130.568 52.0833 133.159 53.3409C135.75 54.5985 137.765 56.4091 139.205 58.7727C140.644 61.1364 141.364 63.9697 141.364 67.2727C141.364 70.6061 140.621 73.4167 139.136 75.7045C137.667 77.9924 135.598 79.7197 132.932 80.8864C130.28 82.053 127.182 82.6364 123.636 82.6364H111.636V72.8182H121.091C122.576 72.8182 123.841 72.6364 124.886 72.2727C125.947 71.8939 126.758 71.2955 127.318 70.4773C127.894 69.6591 128.182 68.5909 128.182 67.2727C128.182 65.9394 127.894 64.8561 127.318 64.0227C126.758 63.1742 125.947 62.553 124.886 62.1591C123.841 61.75 122.576 61.5455 121.091 61.5455H116.636V98H104ZM131.273 76.6364L142.909 98H129.182L117.818 76.6364H131.273ZM160.349 98.6364C156.622 98.6364 153.41 97.9242 150.713 96.5C148.031 95.0606 145.963 93 144.508 90.3182C143.069 87.6212 142.349 84.3939 142.349 80.6364C142.349 77.0303 143.076 73.8788 144.531 71.1818C145.985 68.4848 148.038 66.3864 150.69 64.8864C153.342 63.3864 156.47 62.6364 160.076 62.6364C162.713 62.6364 165.099 63.0455 167.235 63.8636C169.372 64.6818 171.198 65.8712 172.713 67.4318C174.228 68.9773 175.395 70.8561 176.213 73.0682C177.031 75.2803 177.44 77.7727 177.44 80.5455V83.4545H146.258V76.5455H165.895C165.879 75.5455 165.622 74.6667 165.122 73.9091C164.637 73.1364 163.978 72.5379 163.145 72.1136C162.326 71.6742 161.395 71.4545 160.349 71.4545C159.334 71.4545 158.402 71.6742 157.554 72.1136C156.705 72.5379 156.023 73.1288 155.508 73.8864C155.008 74.6439 154.743 75.5303 154.713 76.5455V84C154.713 85.1212 154.948 86.1212 155.417 87C155.887 87.8788 156.561 88.5682 157.44 89.0682C158.319 89.5682 159.379 89.8182 160.622 89.8182C161.485 89.8182 162.273 89.697 162.985 89.4545C163.713 89.2121 164.334 88.8636 164.849 88.4091C165.364 87.9394 165.743 87.3788 165.985 86.7273H177.44C177.046 89.1515 176.114 91.2576 174.645 93.0455C173.175 94.8182 171.228 96.197 168.804 97.1818C166.395 98.1515 163.576 98.6364 160.349 98.6364ZM192.545 78.3636V98H179.999V63.0909H191.908V69.7273H192.272C193.03 67.5152 194.363 65.7803 196.272 64.5227C198.196 63.2652 200.439 62.6364 202.999 62.6364C205.469 62.6364 207.613 63.2045 209.431 64.3409C211.264 65.4621 212.681 67.0076 213.681 68.9773C214.696 70.947 215.196 73.197 215.181 75.7273V98H202.636V78.3636C202.651 76.6364 202.211 75.2803 201.317 74.2955C200.439 73.3106 199.211 72.8182 197.636 72.8182C196.605 72.8182 195.704 73.0455 194.931 73.5C194.174 73.9394 193.59 74.5758 193.181 75.4091C192.772 76.2273 192.56 77.2121 192.545 78.3636ZM239.632 63.0909V72.1818H216.632V63.0909H239.632ZM221.087 54.7273H233.632V86.7727C233.632 87.2576 233.716 87.6667 233.882 88C234.049 88.3182 234.307 88.5606 234.655 88.7273C235.004 88.8788 235.451 88.9545 235.996 88.9545C236.375 88.9545 236.814 88.9091 237.314 88.8182C237.829 88.7273 238.208 88.6515 238.451 88.5909L240.269 97.4091C239.708 97.5758 238.905 97.7803 237.86 98.0227C236.829 98.2652 235.602 98.4242 234.178 98.5C231.299 98.6515 228.883 98.3561 226.928 97.6136C224.973 96.8561 223.504 95.6667 222.519 94.0455C221.534 92.4242 221.057 90.3939 221.087 87.9545V54.7273ZM251.919 98.5455C249.692 98.5455 247.722 98.1818 246.01 97.4545C244.313 96.7121 242.98 95.5909 242.01 94.0909C241.04 92.5909 240.555 90.6818 240.555 88.3636C240.555 86.4545 240.881 84.8258 241.533 83.4773C242.184 82.1136 243.093 81 244.26 80.1364C245.427 79.2727 246.783 78.6136 248.328 78.1591C249.889 77.7045 251.571 77.4091 253.374 77.2727C255.328 77.1212 256.896 76.9394 258.078 76.7273C259.275 76.5 260.139 76.1894 260.669 75.7955C261.199 75.3864 261.465 74.8485 261.465 74.1818V74.0909C261.465 73.1818 261.116 72.4848 260.419 72C259.722 71.5152 258.828 71.2727 257.737 71.2727C256.54 71.2727 255.563 71.5379 254.805 72.0682C254.063 72.5833 253.616 73.3788 253.465 74.4545H241.919C242.071 72.3333 242.745 70.3788 243.942 68.5909C245.154 66.7879 246.919 65.3485 249.237 64.2727C251.555 63.1818 254.449 62.6364 257.919 62.6364C260.419 62.6364 262.662 62.9318 264.646 63.5227C266.631 64.0985 268.321 64.9091 269.715 65.9545C271.108 66.9848 272.169 68.197 272.896 69.5909C273.639 70.9697 274.01 72.4697 274.01 74.0909V98H262.283V93.0909H262.01C261.313 94.3939 260.465 95.447 259.465 96.25C258.48 97.053 257.351 97.6364 256.078 98C254.821 98.3636 253.434 98.5455 251.919 98.5455ZM256.01 90.6364C256.965 90.6364 257.858 90.4394 258.692 90.0455C259.54 89.6515 260.23 89.0833 260.76 88.3409C261.29 87.5985 261.555 86.697 261.555 85.6364V82.7273C261.222 82.8636 260.866 82.9924 260.487 83.1136C260.124 83.2348 259.73 83.3485 259.305 83.4545C258.896 83.5606 258.457 83.6591 257.987 83.75C257.533 83.8409 257.055 83.9242 256.555 84C255.586 84.1515 254.79 84.4015 254.169 84.75C253.563 85.0833 253.108 85.5 252.805 86C252.518 86.4848 252.374 87.0303 252.374 87.6364C252.374 88.6061 252.715 89.3485 253.396 89.8636C254.078 90.3788 254.949 90.6364 256.01 90.6364ZM289.99 51.4545V98H277.444V51.4545H289.99ZM325.731 74.4545H314.185C314.125 73.7424 313.875 73.1288 313.435 72.6136C312.996 72.0985 312.428 71.7045 311.731 71.4318C311.049 71.1439 310.292 71 309.458 71C308.382 71 307.458 71.197 306.685 71.5909C305.913 71.9848 305.534 72.5455 305.549 73.2727C305.534 73.7879 305.754 74.2652 306.208 74.7045C306.678 75.1439 307.579 75.4848 308.913 75.7273L316.004 77C319.579 77.6515 322.238 78.75 323.981 80.2955C325.738 81.8258 326.625 83.8788 326.64 86.4545C326.625 88.9394 325.882 91.0985 324.413 92.9318C322.958 94.75 320.966 96.1591 318.435 97.1591C315.92 98.1439 313.049 98.6364 309.822 98.6364C304.488 98.6364 300.314 97.5455 297.299 95.3636C294.299 93.1818 292.625 90.303 292.276 86.7273H304.731C304.898 87.8333 305.443 88.6894 306.367 89.2955C307.307 89.8864 308.488 90.1818 309.913 90.1818C311.064 90.1818 312.011 89.9848 312.754 89.5909C313.511 89.197 313.898 88.6364 313.913 87.9091C313.898 87.2424 313.564 86.7121 312.913 86.3182C312.276 85.9242 311.276 85.6061 309.913 85.3636L303.731 84.2727C300.17 83.6515 297.504 82.4697 295.731 80.7273C293.958 78.9848 293.079 76.7424 293.095 74C293.079 71.5758 293.716 69.5227 295.004 67.8409C296.307 66.1439 298.163 64.8561 300.572 63.9773C302.996 63.0833 305.867 62.6364 309.185 62.6364C314.231 62.6364 318.208 63.6818 321.117 65.7727C324.042 67.8636 325.579 70.7576 325.731 74.4545Z" fill="#020617"/>
<path d="M113.497 46H102.205L114.928 7.45454H129.232L141.955 46H130.662L122.23 18.0696H121.929L113.497 46ZM111.389 30.7926H132.619V38.6222H111.389V30.7926ZM177.721 21.9091H167.106C167.031 21.0308 166.83 20.234 166.504 19.5188C166.19 18.8036 165.751 18.1888 165.186 17.6744C164.634 17.1474 163.963 16.7459 163.173 16.4698C162.382 16.1812 161.485 16.0369 160.481 16.0369C158.725 16.0369 157.238 16.4635 156.021 17.3168C154.816 18.17 153.9 19.3933 153.273 20.9869C152.658 22.5804 152.351 24.4938 152.351 26.7273C152.351 29.0862 152.664 31.0624 153.292 32.6559C153.931 34.2369 154.854 35.4289 156.058 36.2319C157.263 37.0224 158.712 37.4176 160.406 37.4176C161.372 37.4176 162.238 37.2984 163.003 37.06C163.769 36.8091 164.434 36.4515 164.998 35.9872C165.563 35.523 166.021 34.9646 166.372 34.3121C166.736 33.6471 166.981 32.9006 167.106 32.0724L177.721 32.1477C177.596 33.7789 177.138 35.4414 176.347 37.1353C175.557 38.8166 174.434 40.3725 172.978 41.8029C171.535 43.2208 169.747 44.3626 167.614 45.2283C165.481 46.0941 163.003 46.527 160.18 46.527C156.642 46.527 153.467 45.7679 150.657 44.2496C147.859 42.7314 145.644 40.498 144.013 37.5494C142.394 34.6007 141.585 30.9934 141.585 26.7273C141.585 22.4361 142.413 18.8224 144.069 15.8864C145.726 12.9377 147.959 10.7106 150.77 9.2049C153.58 7.68667 156.717 6.92756 160.18 6.92756C162.614 6.92756 164.854 7.26006 166.899 7.92507C168.944 8.59008 170.739 9.5625 172.282 10.8423C173.825 12.1096 175.068 13.6718 176.009 15.5288C176.95 17.3858 177.521 19.5125 177.721 21.9091ZM190.813 7.45454V46H180.349V7.45454H190.813ZM202.091 46V7.45454H218.729C221.59 7.45454 224.093 7.97526 226.239 9.01669C228.384 10.0581 230.053 11.5575 231.245 13.5149C232.437 15.4723 233.033 17.8187 233.033 20.554C233.033 23.3144 232.418 25.6419 231.189 27.5366C229.972 29.4312 228.259 30.8616 226.05 31.8278C223.855 32.7939 221.289 33.277 218.353 33.277H208.415V25.1463H216.245C217.474 25.1463 218.522 24.9957 219.388 24.6946C220.266 24.3809 220.937 23.8853 221.402 23.2077C221.878 22.5302 222.117 21.6456 222.117 20.554C222.117 19.4498 221.878 18.5527 221.402 17.8626C220.937 17.1599 220.266 16.6455 219.388 16.3192C218.522 15.9805 217.474 15.8111 216.245 15.8111H212.556V46H202.091ZM224.677 28.3082L234.313 46H222.945L213.534 28.3082H224.677ZM243.58 46.4517C241.735 46.4517 240.104 46.1506 238.686 45.5483C237.281 44.9335 236.177 44.005 235.374 42.7628C234.571 41.5206 234.169 39.9396 234.169 38.0199C234.169 36.4389 234.439 35.0901 234.978 33.9734C235.518 32.8441 236.271 31.9219 237.237 31.2067C238.203 30.4915 239.326 29.9457 240.606 29.5692C241.898 29.1928 243.291 28.9482 244.784 28.8352C246.403 28.7098 247.701 28.5592 248.68 28.3835C249.671 28.1953 250.387 27.9381 250.826 27.6119C251.265 27.2731 251.484 26.8277 251.484 26.2756V26.2003C251.484 25.4474 251.196 24.8703 250.619 24.4688C250.041 24.0672 249.301 23.8665 248.398 23.8665C247.407 23.8665 246.597 24.0861 245.97 24.5252C245.355 24.9518 244.985 25.6106 244.859 26.5014H235.298C235.424 24.7448 235.982 23.1262 236.973 21.6456C237.977 20.1525 239.439 18.9605 241.359 18.0696C243.278 17.1662 245.675 16.7145 248.548 16.7145C250.619 16.7145 252.476 16.9592 254.119 17.4485C255.763 17.9253 257.162 18.5966 258.316 19.4624C259.471 20.3156 260.349 21.3194 260.951 22.4737C261.566 23.6155 261.874 24.8577 261.874 26.2003V46H252.162V41.9347H251.936C251.359 43.0137 250.656 43.8858 249.828 44.5508C249.013 45.2158 248.078 45.6989 247.024 46C245.982 46.3011 244.834 46.4517 243.58 46.4517ZM246.967 39.902C247.758 39.902 248.498 39.7389 249.188 39.4126C249.891 39.0864 250.462 38.6159 250.901 38.0011C251.34 37.3862 251.56 36.6397 251.56 35.7614V33.3523C251.284 33.4652 250.989 33.5719 250.675 33.6722C250.374 33.7726 250.048 33.8667 249.696 33.9545C249.358 34.0424 248.994 34.1239 248.605 34.1992C248.228 34.2745 247.833 34.3435 247.419 34.4062C246.616 34.5317 245.957 34.7388 245.443 35.0273C244.941 35.3034 244.565 35.6484 244.314 36.0625C244.075 36.464 243.956 36.9157 243.956 37.4176C243.956 38.2206 244.238 38.8355 244.803 39.2621C245.368 39.6887 246.089 39.902 246.967 39.902ZM278.645 46.527C275.508 46.527 272.823 45.9059 270.59 44.6637C268.356 43.409 266.644 41.6649 265.452 39.4315C264.26 37.1855 263.664 34.5819 263.664 31.6207C263.664 28.6596 264.26 26.0623 265.452 23.8288C266.644 21.5829 268.356 19.8388 270.59 18.5966C272.823 17.3419 275.508 16.7145 278.645 16.7145C281.481 16.7145 283.934 17.2289 286.004 18.2578C288.087 19.2741 289.699 20.7171 290.841 22.5866C291.983 24.4437 292.56 26.6269 292.573 29.1364H282.936C282.798 27.6181 282.359 26.4638 281.619 25.6733C280.891 24.8703 279.95 24.4688 278.796 24.4688C277.892 24.4688 277.102 24.7322 276.424 25.2592C275.747 25.7737 275.22 26.5579 274.843 27.6119C274.467 28.6533 274.279 29.9645 274.279 31.5455C274.279 33.1264 274.467 34.4439 274.843 35.4979C275.22 36.5393 275.747 37.3235 276.424 37.8505C277.102 38.3649 277.892 38.6222 278.796 38.6222C279.561 38.6222 280.239 38.4465 280.828 38.0952C281.418 37.7313 281.895 37.2043 282.259 36.5142C282.635 35.8116 282.861 34.9583 282.936 33.9545H292.573C292.535 36.5017 291.952 38.7225 290.822 40.6172C289.693 42.4993 288.093 43.9548 286.023 44.9837C283.965 46.0125 281.506 46.527 278.645 46.527ZM304.075 39.1491L304.15 26.8026H305.505L312.506 17.0909H324.175L312.431 32.223H309.495L304.075 39.1491ZM294.739 46V7.45454H305.128V46H294.739ZM312.582 46L305.957 34.5568L312.732 27.179L324.477 46H312.582Z" fill="#020617"/>
<path d="M82 34.6154L43 12L4 34.6154M82 34.6154L43 57.2308M82 34.6154V73.3846L43 96M4 34.6154L43 57.2308M4 34.6154V73.3846L43 96M43 57.2308V96" stroke="#4338CA" stroke-width="7.5" stroke-linecap="round" stroke-linejoin="round"/>
</svg>
