<svg width="503" height="108" viewBox="0 0 503 108" fill="none" xmlns="http://www.w3.org/2000/svg">
<path d="M120 104V57.4545H140.091C143.545 57.4545 146.568 58.0833 149.159 59.3409C151.75 60.5985 153.765 62.4091 155.205 64.7727C156.644 67.1364 157.364 69.9697 157.364 73.2727C157.364 76.6061 156.621 79.4167 155.136 81.7045C153.667 83.9924 151.598 85.7197 148.932 86.8864C146.28 88.053 143.182 88.6364 139.636 88.6364H127.636V78.8182H137.091C138.576 78.8182 139.841 78.6364 140.886 78.2727C141.947 77.8939 142.758 77.2955 143.318 76.4773C143.894 75.6591 144.182 74.5909 144.182 73.2727C144.182 71.9394 143.894 70.8561 143.318 70.0227C142.758 69.1742 141.947 68.553 140.886 68.1591C139.841 67.75 138.576 67.5455 137.091 67.5455H132.636V104H120ZM147.273 82.6364L158.909 104H145.182L133.818 82.6364H147.273ZM170.099 104.545C167.872 104.545 165.902 104.182 164.19 103.455C162.493 102.712 161.16 101.591 160.19 100.091C159.22 98.5909 158.735 96.6818 158.735 94.3636C158.735 92.4545 159.061 90.8258 159.713 89.4773C160.364 88.1136 161.273 87 162.44 86.1364C163.607 85.2727 164.963 84.6136 166.508 84.1591C168.069 83.7045 169.751 83.4091 171.554 83.2727C173.508 83.1212 175.076 82.9394 176.258 82.7273C177.455 82.5 178.319 82.1894 178.849 81.7955C179.379 81.3864 179.645 80.8485 179.645 80.1818V80.0909C179.645 79.1818 179.296 78.4848 178.599 78C177.902 77.5152 177.008 77.2727 175.917 77.2727C174.72 77.2727 173.743 77.5379 172.985 78.0682C172.243 78.5833 171.796 79.3788 171.645 80.4545H160.099C160.251 78.3333 160.925 76.3788 162.122 74.5909C163.334 72.7879 165.099 71.3485 167.417 70.2727C169.735 69.1818 172.629 68.6364 176.099 68.6364C178.599 68.6364 180.842 68.9318 182.826 69.5227C184.811 70.0985 186.501 70.9091 187.895 71.9545C189.288 72.9848 190.349 74.197 191.076 75.5909C191.819 76.9697 192.19 78.4697 192.19 80.0909V104H180.463V99.0909H180.19C179.493 100.394 178.645 101.447 177.645 102.25C176.66 103.053 175.531 103.636 174.258 104C173.001 104.364 171.614 104.545 170.099 104.545ZM174.19 96.6364C175.145 96.6364 176.038 96.4394 176.872 96.0455C177.72 95.6515 178.41 95.0833 178.94 94.3409C179.47 93.5985 179.735 92.697 179.735 91.6364V88.7273C179.402 88.8636 179.046 88.9924 178.667 89.1136C178.304 89.2348 177.91 89.3485 177.485 89.4545C177.076 89.5606 176.637 89.6591 176.167 89.75C175.713 89.8409 175.235 89.9242 174.735 90C173.766 90.1515 172.97 90.4015 172.349 90.75C171.743 91.0833 171.288 91.5 170.985 92C170.698 92.4848 170.554 93.0303 170.554 93.6364C170.554 94.6061 170.895 95.3485 171.576 95.8636C172.258 96.3788 173.129 96.6364 174.19 96.6364ZM212.442 104.636C208.655 104.636 205.412 103.886 202.715 102.386C200.018 100.871 197.95 98.7652 196.511 96.0682C195.071 93.3561 194.352 90.2121 194.352 86.6364C194.352 83.0606 195.071 79.9242 196.511 77.2273C197.95 74.5152 200.018 72.4091 202.715 70.9091C205.412 69.3939 208.655 68.6364 212.442 68.6364C215.867 68.6364 218.829 69.2576 221.329 70.5C223.844 71.7273 225.791 73.4697 227.17 75.7273C228.549 77.9697 229.246 80.6061 229.261 83.6364H217.624C217.458 81.803 216.927 80.4091 216.033 79.4545C215.155 78.4848 214.018 78 212.624 78C211.533 78 210.579 78.3182 209.761 78.9545C208.942 79.5758 208.306 80.5227 207.852 81.7955C207.397 83.053 207.17 84.6364 207.17 86.5455C207.17 88.4545 207.397 90.0455 207.852 91.3182C208.306 92.5758 208.942 93.5227 209.761 94.1591C210.579 94.7803 211.533 95.0909 212.624 95.0909C213.549 95.0909 214.367 94.8788 215.079 94.4545C215.791 94.0152 216.367 93.3788 216.806 92.5455C217.261 91.697 217.533 90.6667 217.624 89.4545H229.261C229.215 92.5303 228.511 95.2121 227.147 97.5C225.783 99.7727 223.852 101.53 221.352 102.773C218.867 104.015 215.897 104.636 212.442 104.636ZM243.15 95.7273L243.24 80.8182H244.877L253.331 69.0909H267.422L253.24 87.3636H249.695L243.15 95.7273ZM231.877 104V57.4545H244.422V104H231.877ZM253.422 104L245.422 90.1818L253.604 81.2727L267.786 104H253.422ZM278.137 104V57.4545H298.228C301.683 57.4545 304.706 58.0833 307.297 59.3409C309.887 60.5985 311.903 62.4091 313.342 64.7727C314.781 67.1364 315.501 69.9697 315.501 73.2727C315.501 76.6061 314.759 79.4167 313.274 81.7045C311.804 83.9924 309.736 85.7197 307.069 86.8864C304.418 88.053 301.319 88.6364 297.774 88.6364H285.774V78.8182H295.228C296.713 78.8182 297.978 78.6364 299.024 78.2727C300.084 77.8939 300.895 77.2955 301.456 76.4773C302.031 75.6591 302.319 74.5909 302.319 73.2727C302.319 71.9394 302.031 70.8561 301.456 70.0227C300.895 69.1742 300.084 68.553 299.024 68.1591C297.978 67.75 296.713 67.5455 295.228 67.5455H290.774V104H278.137ZM305.41 82.6364L317.047 104H303.319L291.956 82.6364H305.41ZM334.487 104.636C330.759 104.636 327.547 103.924 324.85 102.5C322.168 101.061 320.1 99 318.646 96.3182C317.206 93.6212 316.487 90.3939 316.487 86.6364C316.487 83.0303 317.214 79.8788 318.668 77.1818C320.123 74.4848 322.176 72.3864 324.827 70.8864C327.479 69.3864 330.608 68.6364 334.214 68.6364C336.85 68.6364 339.237 69.0455 341.373 69.8636C343.509 70.6818 345.335 71.8712 346.85 73.4318C348.365 74.9773 349.532 76.8561 350.35 79.0682C351.168 81.2803 351.577 83.7727 351.577 86.5455V89.4545H320.396V82.5455H340.032C340.017 81.5455 339.759 80.6667 339.259 79.9091C338.774 79.1364 338.115 78.5379 337.282 78.1136C336.464 77.6742 335.532 77.4545 334.487 77.4545C333.471 77.4545 332.54 77.6742 331.691 78.1136C330.843 78.5379 330.161 79.1288 329.646 79.8864C329.146 80.6439 328.881 81.5303 328.85 82.5455V90C328.85 91.1212 329.085 92.1212 329.555 93C330.024 93.8788 330.699 94.5682 331.577 95.0682C332.456 95.5682 333.517 95.8182 334.759 95.8182C335.623 95.8182 336.411 95.697 337.123 95.4545C337.85 95.2121 338.471 94.8636 338.987 94.4091C339.502 93.9394 339.881 93.3788 340.123 92.7273H351.577C351.184 95.1515 350.252 97.2576 348.782 99.0455C347.312 100.818 345.365 102.197 342.941 103.182C340.532 104.152 337.714 104.636 334.487 104.636ZM366.682 84.3636V104H354.137V69.0909H366.046V75.7273H366.41C367.167 73.5152 368.5 71.7803 370.41 70.5227C372.334 69.2652 374.576 68.6364 377.137 68.6364C379.607 68.6364 381.75 69.2045 383.569 70.3409C385.402 71.4621 386.819 73.0076 387.819 74.9773C388.834 76.947 389.334 79.197 389.319 81.7273V104H376.773V84.3636C376.788 82.6364 376.349 81.2803 375.455 80.2955C374.576 79.3106 373.349 78.8182 371.773 78.8182C370.743 78.8182 369.841 79.0455 369.069 79.5C368.311 79.9394 367.728 80.5758 367.319 81.4091C366.91 82.2273 366.697 83.2121 366.682 84.3636ZM413.77 69.0909V78.1818H390.77V69.0909H413.77ZM395.225 60.7273H407.77V92.7727C407.77 93.2576 407.853 93.6667 408.02 94C408.187 94.3182 408.444 94.5606 408.793 94.7273C409.141 94.8788 409.588 94.9545 410.134 94.9545C410.512 94.9545 410.952 94.9091 411.452 94.8182C411.967 94.7273 412.346 94.6515 412.588 94.5909L414.406 103.409C413.846 103.576 413.043 103.78 411.997 104.023C410.967 104.265 409.74 104.424 408.315 104.5C405.437 104.652 403.02 104.356 401.065 103.614C399.111 102.856 397.641 101.667 396.656 100.045C395.672 98.4242 395.194 96.3939 395.225 93.9545V60.7273ZM426.057 104.545C423.829 104.545 421.86 104.182 420.147 103.455C418.451 102.712 417.117 101.591 416.147 100.091C415.178 98.5909 414.693 96.6818 414.693 94.3636C414.693 92.4545 415.019 90.8258 415.67 89.4773C416.322 88.1136 417.231 87 418.397 86.1364C419.564 85.2727 420.92 84.6136 422.466 84.1591C424.026 83.7045 425.708 83.4091 427.511 83.2727C429.466 83.1212 431.034 82.9394 432.216 82.7273C433.413 82.5 434.276 82.1894 434.807 81.7955C435.337 81.3864 435.602 80.8485 435.602 80.1818V80.0909C435.602 79.1818 435.254 78.4848 434.557 78C433.86 77.5152 432.966 77.2727 431.875 77.2727C430.678 77.2727 429.701 77.5379 428.943 78.0682C428.201 78.5833 427.754 79.3788 427.602 80.4545H416.057C416.208 78.3333 416.882 76.3788 418.079 74.5909C419.291 72.7879 421.057 71.3485 423.375 70.2727C425.693 69.1818 428.587 68.6364 432.057 68.6364C434.557 68.6364 436.799 68.9318 438.784 69.5227C440.769 70.0985 442.458 70.9091 443.852 71.9545C445.246 72.9848 446.307 74.197 447.034 75.5909C447.776 76.9697 448.147 78.4697 448.147 80.0909V104H436.42V99.0909H436.147C435.451 100.394 434.602 101.447 433.602 102.25C432.617 103.053 431.488 103.636 430.216 104C428.958 104.364 427.572 104.545 426.057 104.545ZM430.147 96.6364C431.102 96.6364 431.996 96.4394 432.829 96.0455C433.678 95.6515 434.367 95.0833 434.897 94.3409C435.428 93.5985 435.693 92.697 435.693 91.6364V88.7273C435.36 88.8636 435.004 88.9924 434.625 89.1136C434.261 89.2348 433.867 89.3485 433.443 89.4545C433.034 89.5606 432.594 89.6591 432.125 89.75C431.67 89.8409 431.193 89.9242 430.693 90C429.723 90.1515 428.928 90.4015 428.307 90.75C427.701 91.0833 427.246 91.5 426.943 92C426.655 92.4848 426.511 93.0303 426.511 93.6364C426.511 94.6061 426.852 95.3485 427.534 95.8636C428.216 96.3788 429.087 96.6364 430.147 96.6364ZM464.127 57.4545V104H451.582V57.4545H464.127ZM499.868 80.4545H488.323C488.262 79.7424 488.012 79.1288 487.573 78.6136C487.134 78.0985 486.565 77.7045 485.868 77.4318C485.187 77.1439 484.429 77 483.596 77C482.52 77 481.596 77.197 480.823 77.5909C480.05 77.9848 479.671 78.5455 479.687 79.2727C479.671 79.7879 479.891 80.2652 480.346 80.7045C480.815 81.1439 481.717 81.4848 483.05 81.7273L490.141 83C493.717 83.6515 496.376 84.75 498.118 86.2955C499.876 87.8258 500.762 89.8788 500.777 92.4545C500.762 94.9394 500.02 97.0985 498.55 98.9318C497.096 100.75 495.103 102.159 492.573 103.159C490.058 104.144 487.187 104.636 483.959 104.636C478.626 104.636 474.452 103.545 471.437 101.364C468.437 99.1818 466.762 96.303 466.414 92.7273H478.868C479.035 93.8333 479.581 94.6894 480.505 95.2955C481.444 95.8864 482.626 96.1818 484.05 96.1818C485.202 96.1818 486.149 95.9848 486.891 95.5909C487.649 95.197 488.035 94.6364 488.05 93.9091C488.035 93.2424 487.702 92.7121 487.05 92.3182C486.414 91.9242 485.414 91.6061 484.05 91.3636L477.868 90.2727C474.308 89.6515 471.641 88.4697 469.868 86.7273C468.096 84.9848 467.217 82.7424 467.232 80C467.217 77.5758 467.853 75.5227 469.141 73.8409C470.444 72.1439 472.3 70.8561 474.709 69.9773C477.134 69.0833 480.005 68.6364 483.323 68.6364C488.368 68.6364 492.346 69.6818 495.255 71.7727C498.179 73.8636 499.717 76.7576 499.868 80.4545Z" fill="#020617"/>
<path d="M132.091 50H118.455L133.818 3.45454H151.091L166.455 50H152.818L142.636 16.2727H142.273L132.091 50ZM129.545 31.6364H155.182V41.0909H129.545V31.6364ZM209.645 20.9091H196.826C196.735 19.8485 196.493 18.8864 196.099 18.0227C195.72 17.1591 195.19 16.4167 194.508 15.7955C193.842 15.1591 193.031 14.6742 192.076 14.3409C191.122 13.9924 190.038 13.8182 188.826 13.8182C186.705 13.8182 184.91 14.3333 183.44 15.3636C181.985 16.3939 180.879 17.8712 180.122 19.7955C179.379 21.7197 179.008 24.0303 179.008 26.7273C179.008 29.5758 179.387 31.9621 180.145 33.8864C180.917 35.7955 182.031 37.2348 183.485 38.2045C184.94 39.1591 186.69 39.6364 188.735 39.6364C189.902 39.6364 190.948 39.4924 191.872 39.2045C192.796 38.9015 193.599 38.4697 194.281 37.9091C194.963 37.3485 195.516 36.6742 195.94 35.8864C196.379 35.0833 196.675 34.1818 196.826 33.1818L209.645 33.2727C209.493 35.2424 208.94 37.25 207.985 39.2955C207.031 41.3258 205.675 43.2045 203.917 44.9318C202.175 46.6439 200.016 48.0227 197.44 49.0682C194.864 50.1136 191.872 50.6364 188.463 50.6364C184.19 50.6364 180.357 49.7197 176.963 47.8864C173.584 46.053 170.91 43.3561 168.94 39.7955C166.985 36.2348 166.008 31.8788 166.008 26.7273C166.008 21.5455 167.008 17.1818 169.008 13.6364C171.008 10.0758 173.705 7.38636 177.099 5.56818C180.493 3.73485 184.281 2.81818 188.463 2.81818C191.402 2.81818 194.107 3.21969 196.576 4.02272C199.046 4.82576 201.213 6 203.076 7.54545C204.94 9.07576 206.44 10.9621 207.576 13.2045C208.713 15.447 209.402 18.0152 209.645 20.9091ZM225.454 3.45454V50H212.817V3.45454H225.454Z" fill="#020617"/>
<path d="M92.25 31.8125L48 6L3.75 31.8125M92.25 31.8125L48 57.625M92.25 31.8125V76.0625L48 101.875M3.75 31.8125L48 57.625M3.75 31.8125V76.0625L48 101.875M48 57.625V101.875" stroke="#4338CA" stroke-width="7.5" stroke-linecap="round" stroke-linejoin="round"/>
</svg>
